<?xml version="1.0" encoding="UTF-8"?>
<svg id="Layer_1" data-name="Layer 1" xmlns="http://www.w3.org/2000/svg" viewBox="0 0 239.1 27.59">
  <defs>
    <style>
      .cls-1 {
        fill: #fff;
      }
    </style>
  </defs>
  <g id="Logo">
    <path id="CYBERNAUTIC" class="cls-1" d="M8.5,17.63c-.7.31-1.78.77-2.01.89-.51.32-.8.91-.73,1.51v3.63c.04.82-.59,1.52-1.41,1.57-.82.04-1.52-.59-1.57-1.41,0-.02,0-.05,0-.07V3.92c.03-.82.72-1.47,1.54-1.44.78.03,1.41.65,1.44,1.44v6.06l2.01-.92c.52-.29.81-.88.73-1.47V3.46c.01-1.86-1.46-3.39-3.32-3.44h-1.7C1.57,0,.02,1.54,0,3.45h0v20.7c0,1.9,1.55,3.44,3.45,3.44,0,0,.01,0,.02,0h1.7c1.85-.07,3.32-1.59,3.32-3.44v-6.53h.01ZM31.09.29h-2.05c-.49.03-.88.44-.89.93l-1.78,10.23-1.78-10.23c0-.5-.39-.9-.89-.93h-2.05l3.32,15.79v10.43c.02.44.37.79.81.81h1.97v-11.24L31.09.29ZM51.21,13.81c.95-.31,1.59-1.2,1.58-2.2V3.69c-.02-1.88-1.56-3.4-3.44-3.4h-5.02v27.03h5.02c1.88,0,3.42-1.52,3.44-3.4v-7.91c0-1-.63-1.88-1.58-2.2ZM50.01,10.95c0,1.24-.7,1.58-1.43,1.58h-1.5V3.07h1.51c.71-.07,1.35.45,1.43,1.16v6.72h0ZM50.01,23.15c.06.72-.47,1.36-1.19,1.43h-1.74v-9.5h1.51c.73,0,1.43.35,1.43,1.55v6.53h-.01ZM71.4,24.58v-9.38c.01-.36.3-.65.66-.66h1.16c.59.07,1.17-.22,1.47-.73.12-.23.58-1.35.89-2.05h-4.17V3.73c-.02-.35.25-.64.59-.66,0,0,0,0,0,0h2.3c.6.07,1.18-.24,1.47-.77l.93-2.01h-7.22c-.44,0-.81.33-.85.77v26.26h6.18c.6.07,1.19-.22,1.51-.73.12-.23.58-1.31.89-2.01h-5.82ZM99.74,27.32l-2.16-12.94c1-.96,1.53-2.32,1.43-3.71V3.69c-.06-1.91-1.64-3.42-3.55-3.4h-4.83v27.03h2.78v-12.12h1.54l1.89,11.55c.04.19.15.58.81.58h2.09ZM93.41,12.61V2.88h1.47c.74.01,1.35.57,1.43,1.31v7.11c-.07.74-.69,1.3-1.43,1.31,0,0-1.47,0-1.47,0ZM122.52.29h-2.78v15.56l-2.86-14.06c-.15-.77-.43-1.51-1.97-1.51h-1.27v27.03h2.78v-15.1l2.97,13.36c.04.99.86,1.76,1.85,1.74h1.27V.29h.01ZM146.08,27.32h-3.05l-2.43-18.61-2.44,18.61h-3.05L139.2.29h1.51c1.16,0,1.35.73,1.47,1.47l3.9,25.56h0ZM167.32.29h-2.78v23.36c0,.81-.66,1.47-1.47,1.47h-.43c-.79,0-1.43-.65-1.43-1.44V.29h-1.97c-.43,0-.78.34-.81.77v23.09c0,1.84,1.5,3.33,3.34,3.32.01,0,.02,0,.03,0h2.19v-.04c1.82,0,3.3-1.46,3.32-3.28V.29h0ZM191.49.29h-11.04c-.47,0-.85.38-.85.85h0v1.89h3.9v23.71c0,.19.12.58.77.58h1.97V3.69c.03-.37.33-.65.7-.66h2.16c.59.08,1.17-.21,1.47-.73l.92-2.01h0ZM203.96.29v26.45c.04.19.15.58.81.58h1.97V1.37c0-.58-.45-1.06-1.03-1.08h-1.75ZM230.91,17.63c-.7.31-1.78.77-2.01.89-.51.32-.8.91-.73,1.51v3.63c.02.82-.63,1.5-1.45,1.52s-1.5-.63-1.52-1.45V3.92c0-.82.66-1.49,1.49-1.49s1.49.66,1.49,1.49v6.06l2.01-.93c.52-.29.81-.88.73-1.47V3.46c0-1.86-1.46-3.38-3.32-3.44h-1.7c-1.91-.01-3.46,1.52-3.47,3.43h0v20.7c0,1.9,1.55,3.44,3.45,3.44,0,0,.01,0,.02,0h1.7c1.85-.07,3.32-1.59,3.32-3.44v-6.53h0Z"/>
    <path id="Path_4" data-name="Path 4" class="cls-1" d="M235.9.43c-.73,0-1.43.29-1.94.81-.52.51-.81,1.22-.8,1.95,0,.73.28,1.44.8,1.96,1.07,1.07,2.8,1.08,3.87.02,0,0,.01-.01.02-.02.52-.52.81-1.23.8-1.96,0-.73-.28-1.43-.8-1.95-.51-.53-1.22-.82-1.95-.81ZM239.1,3.19c0,.85-.33,1.67-.94,2.27-.59.61-1.42.95-2.27.94-.85.02-1.67-.32-2.26-.94-.61-.6-.94-1.42-.92-2.27,0-.85.33-1.66.93-2.26.59-.61,1.4-.94,2.25-.93,1.76,0,3.2,1.42,3.2,3.18,0,0,0,0,0,0h0ZM236.73,2.49c.03-.2-.06-.4-.23-.51-.24-.1-.49-.15-.75-.13h-.53v1.27h.56c.2,0,.4-.02.59-.08.23-.08.38-.31.36-.55ZM235.83,1.42c.33-.02.65.03.96.13.36.14.58.5.55.89.02.27-.11.54-.34.69-.16.09-.33.15-.51.17.24.02.46.15.61.34.12.16.18.35.19.55v.52c0,.06,0,.12.03.18l.02.04h-.58v-.04l-.02-.05v-.39c.04-.31-.09-.62-.34-.81-.22-.09-.45-.13-.69-.11h-.49v1.39h-.62V1.42h1.23,0Z"/>
  </g>
</svg>